<svg width="90" height="225" viewBox="0 0 90 225" fill="none" xmlns="http://www.w3.org/2000/svg">
<path opacity="0.15" d="M23.2058 185C22.3042 185.002 21.4147 184.793 20.6081 184.391C19.8016 183.989 19.1002 183.404 18.56 182.683L13.833 176.394C9.35432 170.432 6.2084 163.58 4.60752 156.3C3.00665 149.021 2.98805 141.483 4.553 134.196L13.1022 94.372C14.32 88.7038 14.3055 82.8407 13.0598 77.1786C11.8141 71.5165 9.36609 66.1872 5.8812 61.5506L1.16 55.2667C0.703 54.6582 0.370492 53.9658 0.18146 53.2291C-0.00757085 52.4923 -0.0494227 51.7256 0.0582933 50.9726C0.275835 49.452 1.0894 48.08 2.32 47.1584C3.5506 46.2367 5.09745 45.841 6.62024 46.0582C8.14304 46.2755 9.51705 47.0879 10.44 48.3167L15.167 54.6064C19.6449 60.5678 22.7903 67.4188 24.3912 74.6972C25.992 81.9757 26.0111 89.5123 24.447 96.7987L15.8978 136.622C14.68 142.29 14.6945 148.154 15.9402 153.816C17.1859 159.478 19.6339 164.807 23.1188 169.444L27.84 175.733C28.486 176.593 28.8795 177.616 28.9764 178.687C29.0734 179.757 28.87 180.834 28.389 181.796C27.908 182.758 27.1684 183.567 26.2529 184.133C25.3375 184.699 24.2824 184.999 23.2058 185Z" fill="white"/>
<path opacity="0.15" d="M52.2058 139C51.3042 139.002 50.4147 138.793 49.6081 138.391C48.8016 137.989 48.1002 137.404 47.56 136.683L42.833 130.394C38.3543 124.432 35.2084 117.58 33.6075 110.3C32.0066 103.021 31.9881 95.4828 33.553 88.1955L42.1022 48.372C43.32 42.7038 43.3055 36.8407 42.0598 31.1786C40.8141 25.5165 38.3661 20.1872 34.8812 15.5506L30.16 9.26669C29.703 8.65823 29.3705 7.96585 29.1815 7.22907C28.9924 6.49229 28.9506 5.72555 29.0583 4.97263C29.2758 3.45202 30.0894 2.07998 31.32 1.15836C32.5506 0.23673 34.0974 -0.158997 35.6202 0.0582328C37.143 0.275462 38.517 1.08786 39.44 2.31669L44.167 8.60644C48.6449 14.5678 51.7903 21.4188 53.3912 28.6972C54.992 35.9757 55.0111 43.5123 53.447 50.7987L44.8978 90.6222C43.68 96.2904 43.6945 102.154 44.9402 107.816C46.1859 113.478 48.6339 118.807 52.1188 123.444L56.84 129.733C57.486 130.593 57.8795 131.616 57.9764 132.687C58.0734 133.757 57.87 134.834 57.389 135.796C56.908 136.758 56.1684 137.567 55.2529 138.133C54.3375 138.699 53.2824 138.999 52.2058 139Z" fill="white"/>
<path opacity="0.15" d="M84.2058 185C83.3042 185.002 82.4147 184.793 81.6081 184.391C80.8016 183.989 80.1002 183.404 79.56 182.683L74.833 176.394C70.3543 170.432 67.2084 163.58 65.6075 156.3C64.0066 149.021 63.9881 141.483 65.553 134.196L74.1022 94.372C75.32 88.7038 75.3055 82.8407 74.0598 77.1786C72.8141 71.5165 70.3661 66.1872 66.8812 61.5506L62.16 55.2667C61.703 54.6582 61.3705 53.9658 61.1815 53.2291C60.9924 52.4923 60.9506 51.7256 61.0583 50.9726C61.2758 49.452 62.0894 48.08 63.32 47.1584C64.5506 46.2367 66.0974 45.841 67.6202 46.0582C69.143 46.2755 70.517 47.0879 71.44 48.3167L76.167 54.6064C80.6449 60.5678 83.7903 67.4188 85.3912 74.6972C86.992 81.9757 87.0111 89.5123 85.447 96.7987L76.8978 136.622C75.68 142.29 75.6945 148.154 76.9402 153.816C78.1859 159.478 80.6339 164.807 84.1188 169.444L88.84 175.733C89.486 176.593 89.8795 177.616 89.9764 178.687C90.0734 179.757 89.87 180.834 89.389 181.796C88.908 182.758 88.1684 183.567 87.2529 184.133C86.3375 184.699 85.2824 184.999 84.2058 185Z" fill="white"/>
</svg>
