<svg width="106" height="106" viewBox="0 0 428 383" fill="none" xmlns="http://www.w3.org/2000/svg">
<path d="M387.312 213.894C409.581 213.894 428.019 195.683 423.841 173.809C415.866 132.045 395.538 93.2792 365.041 62.7822C324.964 22.7049 270.607 0.189732 213.929 0.189728C157.251 0.189724 102.895 22.7049 62.8176 62.7822C32.3206 93.2792 11.993 132.045 4.01718 173.809C-0.160023 195.683 18.2777 213.894 40.5466 213.894L213.929 213.894H387.312Z" fill="#DDD9CF"/>
<path d="M387.312 213.894C409.581 213.894 428.019 195.683 423.841 173.809C415.866 132.045 395.538 93.2792 365.041 62.7822C324.964 22.7049 270.607 0.189732 213.929 0.189728C157.251 0.189724 102.895 22.7049 62.8176 62.7822C32.3206 93.2792 11.993 132.045 4.01718 173.809C-0.160023 195.683 18.2777 213.894 40.5466 213.894L213.929 213.894H387.312Z" fill="url(#paint0_linear_1_107)" fill-opacity="0.5"/>
<defs>
<linearGradient id="paint0_linear_1_107" x1="213.929" y1="0.189728" x2="213.929" y2="427.598" gradientUnits="userSpaceOnUse">
<stop stop-color="#D6A255"/>
<stop offset="0.29" stop-color="#DDD9CF"/>
</linearGradient>
</defs>
</svg>
