<svg width="82" height="6" viewBox="0 0 82 6" fill="none" xmlns="http://www.w3.org/2000/svg">
<g id="leftPedestal">
<g id="Pedestal">
<path d="M1 0H81L75.5858 5.41421C75.2107 5.78929 74.702 6 74.1716 6H7.82843C7.298 6 6.78929 5.78929 6.41421 5.41421L1 0Z" fill="url(#paint0_linear_1_54)"/>
<path d="M1 0H81L75.5858 5.41421C75.2107 5.78929 74.702 6 74.1716 6H7.82843C7.298 6 6.78929 5.78929 6.41421 5.41421L1 0Z" fill="url(#paint1_linear_1_54)" fill-opacity="0.7"/>
<path d="M1 0H81L75.5858 5.41421C75.2107 5.78929 74.702 6 74.1716 6H7.82843C7.298 6 6.78929 5.78929 6.41421 5.41421L1 0Z" fill="url(#paint2_linear_1_54)"/>
</g>
<g id="Holder">
<path d="M0 0H82L80.1716 1.82843C79.4214 2.57857 78.404 3 77.3431 3H4.65685C3.59599 3 2.57857 2.57857 1.82843 1.82843L0 0Z" fill="url(#paint3_linear_1_54)"/>
<path d="M0 0H82L80.1716 1.82843C79.4214 2.57857 78.404 3 77.3431 3H4.65685C3.59599 3 2.57857 2.57857 1.82843 1.82843L0 0Z" fill="url(#paint4_linear_1_54)" fill-opacity="0.7"/>
<path d="M0 0H82L80.1716 1.82843C79.4214 2.57857 78.404 3 77.3431 3H4.65685C3.59599 3 2.57857 2.57857 1.82843 1.82843L0 0Z" fill="url(#paint5_linear_1_54)"/>
</g>
</g>
<defs>
<linearGradient id="paint0_linear_1_54" x1="1" y1="3" x2="81" y2="3" gradientUnits="userSpaceOnUse">
<stop stop-color="#A0A1A5"/>
<stop offset="0.0182411" stop-color="#D3D4D9"/>
<stop offset="0.0572677" stop-color="#6A6B70"/>
<stop offset="0.0871115" stop-color="#797A7F"/>
<stop offset="0.213824" stop-color="#A8A9AE"/>
<stop offset="0.786959" stop-color="#A8A9AE"/>
<stop offset="0.917556" stop-color="#797A7F"/>
<stop offset="0.946746" stop-color="#6A6B70"/>
<stop offset="0.978072" stop-color="#D3D4D9"/>
<stop offset="1" stop-color="#A0A1A5"/>
</linearGradient>
<linearGradient id="paint1_linear_1_54" x1="41" y1="0" x2="41" y2="6" gradientUnits="userSpaceOnUse">
<stop stop-color="#858688" stop-opacity="0"/>
<stop offset="0.651042" stop-color="#737479"/>
<stop offset="0.927083" stop-color="#B7B8BD"/>
<stop offset="1" stop-color="#858688"/>
</linearGradient>
<linearGradient id="paint2_linear_1_54" x1="41" y1="0" x2="41" y2="6" gradientUnits="userSpaceOnUse">
<stop stop-color="#38300B"/>
<stop offset="1" stop-color="#1C1704"/>
</linearGradient>
<linearGradient id="paint3_linear_1_54" x1="0" y1="1.5" x2="82" y2="1.49998" gradientUnits="userSpaceOnUse">
<stop stop-color="#A0A1A5"/>
<stop offset="0.0182411" stop-color="#D3D4D9"/>
<stop offset="0.0572677" stop-color="#6A6B70"/>
<stop offset="0.0871115" stop-color="#797A7F"/>
<stop offset="0.213824" stop-color="#A8A9AE"/>
<stop offset="0.786959" stop-color="#A8A9AE"/>
<stop offset="0.917556" stop-color="#797A7F"/>
<stop offset="0.946746" stop-color="#6A6B70"/>
<stop offset="0.978072" stop-color="#D3D4D9"/>
<stop offset="1" stop-color="#A0A1A5"/>
</linearGradient>
<linearGradient id="paint4_linear_1_54" x1="41" y1="0" x2="41" y2="3" gradientUnits="userSpaceOnUse">
<stop stop-color="#858688" stop-opacity="0"/>
<stop offset="0.651042" stop-color="#737479"/>
<stop offset="0.927083" stop-color="#B7B8BD"/>
<stop offset="1" stop-color="#858688"/>
</linearGradient>
<linearGradient id="paint5_linear_1_54" x1="41" y1="0" x2="41" y2="3" gradientUnits="userSpaceOnUse">
<stop stop-color="#38300B"/>
<stop offset="1" stop-color="#1C1704"/>
</linearGradient>
</defs>
</svg>
