<svg width="1370" height="835" viewBox="0 0 1370 835" fill="none" xmlns="http://www.w3.org/2000/svg">
<path d="M66 829H146L140.586 834.414C140.211 834.789 139.702 835 139.172 835H72.8284C72.298 835 71.7893 834.789 71.4142 834.414L66 829Z" fill="url(#paint0_linear_1_52)"/>
<path d="M66 829H146L140.586 834.414C140.211 834.789 139.702 835 139.172 835H72.8284C72.298 835 71.7893 834.789 71.4142 834.414L66 829Z" fill="url(#paint1_linear_1_52)" fill-opacity="0.7"/>
<path d="M66 829H146L140.586 834.414C140.211 834.789 139.702 835 139.172 835H72.8284C72.298 835 71.7893 834.789 71.4142 834.414L66 829Z" fill="url(#paint2_linear_1_52)"/>
<path d="M65 829H147L145.172 830.828C144.421 831.579 143.404 832 142.343 832H69.6569C68.596 832 67.5786 831.579 66.8284 830.828L65 829Z" fill="url(#paint3_linear_1_52)"/>
<path d="M65 829H147L145.172 830.828C144.421 831.579 143.404 832 142.343 832H69.6569C68.596 832 67.5786 831.579 66.8284 830.828L65 829Z" fill="url(#paint4_linear_1_52)" fill-opacity="0.7"/>
<path d="M65 829H147L145.172 830.828C144.421 831.579 143.404 832 142.343 832H69.6569C68.596 832 67.5786 831.579 66.8284 830.828L65 829Z" fill="url(#paint5_linear_1_52)"/>
<path d="M1224 829H1304L1298.59 834.414C1298.21 834.789 1297.7 835 1297.17 835H1230.83C1230.3 835 1229.79 834.789 1229.41 834.414L1224 829Z" fill="url(#paint6_linear_1_52)"/>
<path d="M1224 829H1304L1298.59 834.414C1298.21 834.789 1297.7 835 1297.17 835H1230.83C1230.3 835 1229.79 834.789 1229.41 834.414L1224 829Z" fill="url(#paint7_linear_1_52)" fill-opacity="0.7"/>
<path d="M1224 829H1304L1298.59 834.414C1298.21 834.789 1297.7 835 1297.17 835H1230.83C1230.3 835 1229.79 834.789 1229.41 834.414L1224 829Z" fill="url(#paint8_linear_1_52)"/>
<path d="M1223 829H1305L1303.17 830.828C1302.42 831.579 1301.4 832 1300.34 832H1227.66C1226.6 832 1225.58 831.579 1224.83 830.828L1223 829Z" fill="url(#paint9_linear_1_52)"/>
<path d="M1223 829H1305L1303.17 830.828C1302.42 831.579 1301.4 832 1300.34 832H1227.66C1226.6 832 1225.58 831.579 1224.83 830.828L1223 829Z" fill="url(#paint10_linear_1_52)" fill-opacity="0.7"/>
<path d="M1223 829H1305L1303.17 830.828C1302.42 831.579 1301.4 832 1300.34 832H1227.66C1226.6 832 1225.58 831.579 1224.83 830.828L1223 829Z" fill="url(#paint11_linear_1_52)"/>
<g filter="url(#filter0_i_1_52)">
<path d="M0 783C0 781.895 0.89543 781 2 781H1368C1369.1 781 1370 781.895 1370 783V804C1370 817.807 1358.81 829 1345 829H25C11.1929 829 0 817.807 0 804V783Z" fill="url(#paint12_linear_1_52)"/>
<path d="M0 783C0 781.895 0.89543 781 2 781H1368C1369.1 781 1370 781.895 1370 783V804C1370 817.807 1358.81 829 1345 829H25C11.1929 829 0 817.807 0 804V783Z" fill="url(#paint13_linear_1_52)" fill-opacity="0.7"/>
<path d="M0 783C0 781.895 0.89543 781 2 781H1368C1369.1 781 1370 781.895 1370 783V804C1370 817.807 1358.81 829 1345 829H25C11.1929 829 0 817.807 0 804V783Z" fill="url(#paint14_linear_1_52)"/>
</g>
<g filter="url(#filter1_iii_1_52)">
<path d="M580 781H790C790 789.284 783.284 796 775 796H595C586.716 796 580 789.284 580 781Z" fill="url(#paint15_linear_1_52)"/>
<path d="M580 781H790C790 789.284 783.284 796 775 796H595C586.716 796 580 789.284 580 781Z" fill="url(#paint16_linear_1_52)" fill-opacity="0.7"/>
<path d="M580 781H790C790 789.284 783.284 796 775 796H595C586.716 796 580 789.284 580 781Z" fill="url(#paint17_linear_1_52)"/>
</g>
<g filter="url(#filter2_i_1_52)">
<path d="M107 29C107 12.9838 119.984 0 136 0H1234C1250.02 0 1263 12.9837 1263 29V781H107V29Z" fill="url(#paint18_linear_1_52)"/>
</g>
<path d="M109 29C109 14.0883 121.088 2 136 2H1234C1248.91 2 1261 14.0883 1261 29V781H109V29Z" fill="url(#paint19_linear_1_52)"/>
<path d="M112 29C112 15.7452 122.745 5 136 5H1234C1247.25 5 1258 15.7452 1258 29V754H112V29Z" fill="url(#paint20_linear_1_52)"/>
<rect x="112" y="754" width="1146" height="27" fill="url(#paint21_linear_1_52)"/>
<g clip-path="url(#clip0_1_52)">
<path d="M124 31C124 23.268 130.268 17 138 17H1232C1239.73 17 1246 23.268 1246 31V741C1246 741.552 1245.55 742 1245 742H125C124.448 742 124 741.552 124 741V31Z" fill="white"/>
<path d="M124 31C124 23.268 130.268 17 138 17H1232C1239.73 17 1246 23.268 1246 31V741C1246 741.552 1245.55 742 1245 742H125C124.448 742 124 741.552 124 741V31Z" fill="#F9DA4A"/>
</g>
<path d="M614 17H623C624.657 17 626 18.3431 626 20V31C626 34.3137 628.686 37 632 37H739C741.761 37 744 34.7614 744 32V20C744 18.3431 745.343 17 747 17H756H614Z" fill="url(#paint22_radial_1_52)"/>
<path d="M614 17H623C624.657 17 626 18.3431 626 20V31C626 34.3137 628.686 37 632 37H739C741.761 37 744 34.7614 744 32V20C744 18.3431 745.343 17 747 17H756H614Z" fill="url(#paint23_linear_1_52)"/>
<circle cx="685" cy="22" r="5" fill="url(#paint24_radial_1_52)"/>
<circle cx="685" cy="22" r="5" fill="url(#paint25_linear_1_52)"/>
<defs>
<filter id="filter0_i_1_52" x="0" y="781" width="1370" height="49" filterUnits="userSpaceOnUse" color-interpolation-filters="sRGB">
<feFlood flood-opacity="0" result="BackgroundImageFix"/>
<feBlend mode="normal" in="SourceGraphic" in2="BackgroundImageFix" result="shape"/>
<feColorMatrix in="SourceAlpha" type="matrix" values="0 0 0 0 0 0 0 0 0 0 0 0 0 0 0 0 0 0 127 0" result="hardAlpha"/>
<feOffset dy="1"/>
<feGaussianBlur stdDeviation="0.5"/>
<feComposite in2="hardAlpha" operator="arithmetic" k2="-1" k3="1"/>
<feColorMatrix type="matrix" values="0 0 0 0 1 0 0 0 0 1 0 0 0 0 1 0 0 0 0.36 0"/>
<feBlend mode="normal" in2="shape" result="effect1_innerShadow_1_52"/>
</filter>
<filter id="filter1_iii_1_52" x="577" y="779" width="216" height="17" filterUnits="userSpaceOnUse" color-interpolation-filters="sRGB">
<feFlood flood-opacity="0" result="BackgroundImageFix"/>
<feBlend mode="normal" in="SourceGraphic" in2="BackgroundImageFix" result="shape"/>
<feColorMatrix in="SourceAlpha" type="matrix" values="0 0 0 0 0 0 0 0 0 0 0 0 0 0 0 0 0 0 127 0" result="hardAlpha"/>
<feMorphology radius="3" operator="dilate" in="SourceAlpha" result="effect1_innerShadow_1_52"/>
<feOffset dx="4"/>
<feGaussianBlur stdDeviation="3"/>
<feComposite in2="hardAlpha" operator="arithmetic" k2="-1" k3="1"/>
<feColorMatrix type="matrix" values="0 0 0 0 0 0 0 0 0 0 0 0 0 0 0 0 0 0 1 0"/>
<feBlend mode="normal" in2="shape" result="effect1_innerShadow_1_52"/>
<feColorMatrix in="SourceAlpha" type="matrix" values="0 0 0 0 0 0 0 0 0 0 0 0 0 0 0 0 0 0 127 0" result="hardAlpha"/>
<feMorphology radius="3" operator="dilate" in="SourceAlpha" result="effect2_innerShadow_1_52"/>
<feOffset dx="-4"/>
<feGaussianBlur stdDeviation="3"/>
<feComposite in2="hardAlpha" operator="arithmetic" k2="-1" k3="1"/>
<feColorMatrix type="matrix" values="0 0 0 0 0 0 0 0 0 0 0 0 0 0 0 0 0 0 1 0"/>
<feBlend mode="normal" in2="effect1_innerShadow_1_52" result="effect2_innerShadow_1_52"/>
<feColorMatrix in="SourceAlpha" type="matrix" values="0 0 0 0 0 0 0 0 0 0 0 0 0 0 0 0 0 0 127 0" result="hardAlpha"/>
<feOffset dy="-2"/>
<feGaussianBlur stdDeviation="1"/>
<feComposite in2="hardAlpha" operator="arithmetic" k2="-1" k3="1"/>
<feColorMatrix type="matrix" values="0 0 0 0 1 0 0 0 0 1 0 0 0 0 1 0 0 0 0.4 0"/>
<feBlend mode="normal" in2="effect2_innerShadow_1_52" result="effect3_innerShadow_1_52"/>
</filter>
<filter id="filter2_i_1_52" x="107" y="0" width="1156" height="781" filterUnits="userSpaceOnUse" color-interpolation-filters="sRGB">
<feFlood flood-opacity="0" result="BackgroundImageFix"/>
<feBlend mode="normal" in="SourceGraphic" in2="BackgroundImageFix" result="shape"/>
<feColorMatrix in="SourceAlpha" type="matrix" values="0 0 0 0 0 0 0 0 0 0 0 0 0 0 0 0 0 0 127 0" result="hardAlpha"/>
<feMorphology radius="0.5" operator="erode" in="SourceAlpha" result="effect1_innerShadow_1_52"/>
<feOffset/>
<feGaussianBlur stdDeviation="0.5"/>
<feComposite in2="hardAlpha" operator="arithmetic" k2="-1" k3="1"/>
<feColorMatrix type="matrix" values="0 0 0 0 0.666667 0 0 0 0 0.666667 0 0 0 0 0.666667 0 0 0 1 0"/>
<feBlend mode="normal" in2="shape" result="effect1_innerShadow_1_52"/>
</filter>
<linearGradient id="paint0_linear_1_52" x1="66" y1="832" x2="146" y2="832" gradientUnits="userSpaceOnUse">
<stop stop-color="#A0A1A5"/>
<stop offset="0.0182411" stop-color="#D3D4D9"/>
<stop offset="0.0572677" stop-color="#6A6B70"/>
<stop offset="0.0871115" stop-color="#797A7F"/>
<stop offset="0.213824" stop-color="#A8A9AE"/>
<stop offset="0.786959" stop-color="#A8A9AE"/>
<stop offset="0.917556" stop-color="#797A7F"/>
<stop offset="0.946746" stop-color="#6A6B70"/>
<stop offset="0.978072" stop-color="#D3D4D9"/>
<stop offset="1" stop-color="#A0A1A5"/>
</linearGradient>
<linearGradient id="paint1_linear_1_52" x1="106" y1="829" x2="106" y2="835" gradientUnits="userSpaceOnUse">
<stop stop-color="#858688" stop-opacity="0"/>
<stop offset="0.651042" stop-color="#737479"/>
<stop offset="0.927083" stop-color="#B7B8BD"/>
<stop offset="1" stop-color="#858688"/>
</linearGradient>
<linearGradient id="paint2_linear_1_52" x1="106" y1="829" x2="106" y2="835" gradientUnits="userSpaceOnUse">
<stop stop-color="#38300B"/>
<stop offset="1" stop-color="#1C1704"/>
</linearGradient>
<linearGradient id="paint3_linear_1_52" x1="65" y1="830.5" x2="147" y2="830.5" gradientUnits="userSpaceOnUse">
<stop stop-color="#A0A1A5"/>
<stop offset="0.0182411" stop-color="#D3D4D9"/>
<stop offset="0.0572677" stop-color="#6A6B70"/>
<stop offset="0.0871115" stop-color="#797A7F"/>
<stop offset="0.213824" stop-color="#A8A9AE"/>
<stop offset="0.786959" stop-color="#A8A9AE"/>
<stop offset="0.917556" stop-color="#797A7F"/>
<stop offset="0.946746" stop-color="#6A6B70"/>
<stop offset="0.978072" stop-color="#D3D4D9"/>
<stop offset="1" stop-color="#A0A1A5"/>
</linearGradient>
<linearGradient id="paint4_linear_1_52" x1="106" y1="829" x2="106" y2="832" gradientUnits="userSpaceOnUse">
<stop stop-color="#858688" stop-opacity="0"/>
<stop offset="0.651042" stop-color="#737479"/>
<stop offset="0.927083" stop-color="#B7B8BD"/>
<stop offset="1" stop-color="#858688"/>
</linearGradient>
<linearGradient id="paint5_linear_1_52" x1="106" y1="829" x2="106" y2="832" gradientUnits="userSpaceOnUse">
<stop stop-color="#38300B"/>
<stop offset="1" stop-color="#1C1704"/>
</linearGradient>
<linearGradient id="paint6_linear_1_52" x1="1224" y1="832" x2="1304" y2="832" gradientUnits="userSpaceOnUse">
<stop stop-color="#A0A1A5"/>
<stop offset="0.0182411" stop-color="#D3D4D9"/>
<stop offset="0.0572677" stop-color="#6A6B70"/>
<stop offset="0.0871115" stop-color="#797A7F"/>
<stop offset="0.213824" stop-color="#A8A9AE"/>
<stop offset="0.786959" stop-color="#A8A9AE"/>
<stop offset="0.917556" stop-color="#797A7F"/>
<stop offset="0.946746" stop-color="#6A6B70"/>
<stop offset="0.978072" stop-color="#D3D4D9"/>
<stop offset="1" stop-color="#A0A1A5"/>
</linearGradient>
<linearGradient id="paint7_linear_1_52" x1="1264" y1="829" x2="1264" y2="835" gradientUnits="userSpaceOnUse">
<stop stop-color="#858688" stop-opacity="0"/>
<stop offset="0.651042" stop-color="#737479"/>
<stop offset="0.927083" stop-color="#B7B8BD"/>
<stop offset="1" stop-color="#858688"/>
</linearGradient>
<linearGradient id="paint8_linear_1_52" x1="1264" y1="829" x2="1264" y2="835" gradientUnits="userSpaceOnUse">
<stop stop-color="#38300B"/>
<stop offset="1" stop-color="#1C1704"/>
</linearGradient>
<linearGradient id="paint9_linear_1_52" x1="1223" y1="830.5" x2="1305" y2="830.5" gradientUnits="userSpaceOnUse">
<stop stop-color="#A0A1A5"/>
<stop offset="0.0182411" stop-color="#D3D4D9"/>
<stop offset="0.0572677" stop-color="#6A6B70"/>
<stop offset="0.0871115" stop-color="#797A7F"/>
<stop offset="0.213824" stop-color="#A8A9AE"/>
<stop offset="0.786959" stop-color="#A8A9AE"/>
<stop offset="0.917556" stop-color="#797A7F"/>
<stop offset="0.946746" stop-color="#6A6B70"/>
<stop offset="0.978072" stop-color="#D3D4D9"/>
<stop offset="1" stop-color="#A0A1A5"/>
</linearGradient>
<linearGradient id="paint10_linear_1_52" x1="1264" y1="829" x2="1264" y2="832" gradientUnits="userSpaceOnUse">
<stop stop-color="#858688" stop-opacity="0"/>
<stop offset="0.651042" stop-color="#737479"/>
<stop offset="0.927083" stop-color="#B7B8BD"/>
<stop offset="1" stop-color="#858688"/>
</linearGradient>
<linearGradient id="paint11_linear_1_52" x1="1264" y1="829" x2="1264" y2="832" gradientUnits="userSpaceOnUse">
<stop stop-color="#38300B"/>
<stop offset="1" stop-color="#1C1704"/>
</linearGradient>
<linearGradient id="paint12_linear_1_52" x1="0" y1="805" x2="1370" y2="805" gradientUnits="userSpaceOnUse">
<stop stop-color="#A0A1A5"/>
<stop offset="0.0182411" stop-color="#D3D4D9"/>
<stop offset="0.0572677" stop-color="#6A6B70"/>
<stop offset="0.0871115" stop-color="#797A7F"/>
<stop offset="0.213824" stop-color="#A8A9AE"/>
<stop offset="0.786959" stop-color="#A8A9AE"/>
<stop offset="0.917556" stop-color="#797A7F"/>
<stop offset="0.946746" stop-color="#6A6B70"/>
<stop offset="0.978072" stop-color="#D3D4D9"/>
<stop offset="1" stop-color="#A0A1A5"/>
</linearGradient>
<linearGradient id="paint13_linear_1_52" x1="685" y1="781" x2="685" y2="829" gradientUnits="userSpaceOnUse">
<stop stop-color="#858688" stop-opacity="0"/>
<stop offset="0.651042" stop-color="#737479"/>
<stop offset="0.927083" stop-color="#B7B8BD"/>
<stop offset="1" stop-color="#858688"/>
</linearGradient>
<linearGradient id="paint14_linear_1_52" x1="685" y1="781" x2="685" y2="829" gradientUnits="userSpaceOnUse">
<stop stop-color="#38300B"/>
<stop offset="1" stop-color="#1C1704"/>
</linearGradient>
<linearGradient id="paint15_linear_1_52" x1="580" y1="788.5" x2="790" y2="788.5" gradientUnits="userSpaceOnUse">
<stop stop-color="#A0A1A5"/>
<stop offset="0.0182411" stop-color="#D3D4D9"/>
<stop offset="0.0572677" stop-color="#6A6B70"/>
<stop offset="0.0871115" stop-color="#797A7F"/>
<stop offset="0.213824" stop-color="#A8A9AE"/>
<stop offset="0.786959" stop-color="#A8A9AE"/>
<stop offset="0.917556" stop-color="#797A7F"/>
<stop offset="0.946746" stop-color="#6A6B70"/>
<stop offset="0.978072" stop-color="#D3D4D9"/>
<stop offset="1" stop-color="#A0A1A5"/>
</linearGradient>
<linearGradient id="paint16_linear_1_52" x1="685" y1="781" x2="685" y2="796" gradientUnits="userSpaceOnUse">
<stop stop-color="#858688" stop-opacity="0"/>
<stop offset="0.651042" stop-color="#737479"/>
<stop offset="0.927083" stop-color="#B7B8BD"/>
<stop offset="1" stop-color="#858688"/>
</linearGradient>
<linearGradient id="paint17_linear_1_52" x1="685" y1="781" x2="685" y2="796" gradientUnits="userSpaceOnUse">
<stop stop-color="#38300B"/>
<stop offset="1" stop-color="#1C1704"/>
</linearGradient>
<linearGradient id="paint18_linear_1_52" x1="685" y1="0" x2="685" y2="781" gradientUnits="userSpaceOnUse">
<stop stop-color="#38300B"/>
<stop offset="1" stop-color="#1C1704"/>
</linearGradient>
<linearGradient id="paint19_linear_1_52" x1="685" y1="2" x2="685" y2="781" gradientUnits="userSpaceOnUse">
<stop stop-color="#38300B"/>
<stop offset="1" stop-color="#1C1704"/>
</linearGradient>
<linearGradient id="paint20_linear_1_52" x1="685" y1="5" x2="685" y2="754" gradientUnits="userSpaceOnUse">
<stop stop-color="#38300B"/>
<stop offset="1" stop-color="#1C1704"/>
</linearGradient>
<linearGradient id="paint21_linear_1_52" x1="685" y1="754" x2="685" y2="781" gradientUnits="userSpaceOnUse">
<stop stop-color="#38300B"/>
<stop offset="1" stop-color="#1C1704"/>
</linearGradient>
<radialGradient id="paint22_radial_1_52" cx="0" cy="0" r="1" gradientUnits="userSpaceOnUse" gradientTransform="translate(685 27) rotate(90) scale(10 71)">
<stop stop-color="#9797AB"/>
<stop offset="0.391646" stop-color="#2C2C46"/>
<stop offset="1" stop-color="#3F3F46"/>
</radialGradient>
<linearGradient id="paint23_linear_1_52" x1="685" y1="17" x2="685" y2="37" gradientUnits="userSpaceOnUse">
<stop stop-color="#38300B"/>
<stop offset="1" stop-color="#1C1704"/>
</linearGradient>
<radialGradient id="paint24_radial_1_52" cx="0" cy="0" r="1" gradientUnits="userSpaceOnUse" gradientTransform="translate(685 22) rotate(90) scale(5)">
<stop stop-color="#9797AB"/>
<stop offset="0.391646" stop-color="#2C2C46"/>
<stop offset="1" stop-color="#3F3F46"/>
</radialGradient>
<linearGradient id="paint25_linear_1_52" x1="685" y1="17" x2="685" y2="27" gradientUnits="userSpaceOnUse">
<stop stop-color="#38300B"/>
<stop offset="1" stop-color="#1C1704"/>
</linearGradient>
<clipPath id="clip0_1_52">
<path d="M124 31C124 23.268 130.268 17 138 17H1232C1239.73 17 1246 23.268 1246 31V741C1246 741.552 1245.55 742 1245 742H125C124.448 742 124 741.552 124 741V31Z" fill="white"/>
</clipPath>
</defs>
</svg>
