{
  "accessors": [
    {
      "bufferView": 2,
      "componentType": 5126,
      "count": 1573,
      "max": [
        0.5973799824714661,
        3.25393009185791,
        1.1825000047683716
      ],
      "min": [
        -0.545199990272522,
        -2.1830999851226807,
        -1.3481199741363525
      ],
      "type": "VEC3"
    },
    {
      "bufferView": 2,
      "byteOffset": 18876,
      "componentType": 5126,
      "count": 1573,
      "max": [
        0.9999961853027344,
        0.9875232577323914,
        0.9585392475128174
      ],
      "min": [
        -0.9999980926513672,
        -0.9940624833106995,
        -1.0
      ],
      "type": "VEC3"
    },
    {
      "bufferView": 1,
      "componentType": 5126,
      "count": 1573,
      "max": [
        0.9587000012397766,
        0.9769399762153625
      ],
      "min": [
        0.0319099985063076,
        0.07128000259399414
      ],
      "type": "VEC2"
    },
    {
      "bufferView": 0,
      "componentType": 5125,
      "count": 2346,
      "type": "SCALAR"
    },
    {
      "bufferView": 2,
      "byteOffset": 37752,
      "componentType": 5126,
      "count": 256,
      "max": [
        2.1234500408172607,
        2.271389961242676,
        0.09018000215291977
      ],
      "min": [
        -2.0550999641418457,
        -1.8904500007629395,
        -0.7701200246810913
      ],
      "type": "VEC3"
    },
    {
      "bufferView": 2,
      "byteOffset": 40824,
      "componentType": 5126,
      "count": 256,
      "max": [
        0.7547459006309509,
        0.661810040473938,
        0.9993627667427063
      ],
      "min": [
        -0.7188592553138733,
        -0.8166164755821228,
        0.5397876501083374
      ],
      "type": "VEC3"
    },
    {
      "bufferView": 1,
      "byteOffset": 12584,
      "componentType": 5126,
      "count": 256,
      "max": [
        0.9378200173377991,
        0.8132200241088867
      ],
      "min": [
        0.10786999762058258,
        0.4279800057411194
      ],
      "type": "VEC2"
    },
    {
      "bufferView": 0,
      "byteOffset": 9384,
      "componentType": 5125,
      "count": 384,
      "type": "SCALAR"
    },
    {
      "bufferView": 2,
      "byteOffset": 43896,
      "componentType": 5126,
      "count": 176,
      "max": [
        1.024590015411377,
        4.856339931488037,
        5.999929904937744
      ],
      "min": [
        -0.9947400093078613,
        -3.0406200885772705,
        -1.1101100444793701
      ],
      "type": "VEC3"
    },
    {
      "bufferView": 2,
      "byteOffset": 46008,
      "componentType": 5126,
      "count": 176,
      "max": [
        0.9441552758216858,
        0.8214778900146484,
        0.9502882957458496
      ],
      "min": [
        -0.9691848158836365,
        -0.9828029274940491,
        -0.9985920190811157
      ],
      "type": "VEC3"
    },
    {
      "bufferView": 0,
      "byteOffset": 10920,
      "componentType": 5125,
      "count": 246,
      "type": "SCALAR"
    },
    {
      "bufferView": 2,
      "byteOffset": 48120,
      "componentType": 5126,
      "count": 891,
      "max": [
        1.1785099506378174,
        0.986270010471344,
        1.2383099794387817
      ],
      "min": [
        -1.65024995803833,
        -3.0802500247955322,
        -2.922499895095825
      ],
      "type": "VEC3"
    },
    {
      "bufferView": 2,
      "byteOffset": 58812,
      "componentType": 5126,
      "count": 891,
      "max": [
        0.9990379810333252,
        0.9767439365386963,
        0.9717995524406433
      ],
      "min": [
        -0.9971252679824829,
        -0.9843358993530273,
        -0.998241662979126
      ],
      "type": "VEC3"
    },
    {
      "bufferView": 0,
      "byteOffset": 11904,
      "componentType": 5125,
      "count": 891,
      "type": "SCALAR"
    },
    {
      "bufferView": 2,
      "byteOffset": 69504,
      "componentType": 5126,
      "count": 60,
      "max": [
        0.8944200277328491,
        0.8506399989128113,
        1.0
      ],
      "min": [
        -0.8944200277328491,
        -0.8506399989128113,
        -1.0
      ],
      "type": "VEC3"
    },
    {
      "bufferView": 2,
      "byteOffset": 70224,
      "componentType": 5126,
      "count": 60,
      "max": [
        0.9822456240653992,
        0.9341700077056885,
        0.7946538329124451
      ],
      "min": [
        -0.9822456240653992,
        -0.9341700077056885,
        -0.7946538329124451
      ],
      "type": "VEC3"
    },
    {
      "bufferView": 0,
      "byteOffset": 15468,
      "componentType": 5125,
      "count": 60,
      "type": "SCALAR"
    },
    {
      "bufferView": 2,
      "byteOffset": 70944,
      "componentType": 5126,
      "count": 256,
      "max": [
        2.1234500408172607,
        2.271389961242676,
        1.8584100008010864
      ],
      "min": [
        -2.0550999641418457,
        -2.3320600986480713,
        -0.813289999961853
      ],
      "type": "VEC3"
    },
    {
      "bufferView": 2,
      "byteOffset": 74016,
      "componentType": 5126,
      "count": 256,
      "max": [
        0.9302785992622375,
        0.924624502658844,
        0.9962427616119385
      ],
      "min": [
        -0.8619348406791687,
        -0.8449907302856445,
        0.35594943165779114
      ],
      "type": "VEC3"
    },
    {
      "bufferView": 1,
      "byteOffset": 14632,
      "componentType": 5126,
      "count": 256,
      "max": [
        0.8930100202560425,
        0.8022800087928772
      ],
      "min": [
        0.0435199998319149,
        0.4186500012874603
      ],
      "type": "VEC2"
    },
    {
      "bufferView": 0,
      "byteOffset": 15708,
      "componentType": 5125,
      "count": 384,
      "type": "SCALAR"
    }
  ],
  "asset": {
    "extras": {
      "author": "Vlad Zaichyk (https://sketchfab.com/vladzaichyk)",
      "license": "CC-BY-4.0 (http://creativecommons.org/licenses/by/4.0/)",
      "source": "https://sketchfab.com/3d-models/lowpoly-fox-01674a892f414c0681afdeb563cc8e13",
      "title": "Lowpoly fox"
    },
    "generator": "Sketchfab-12.65.0",
    "version": "2.0"
  },
  "bufferViews": [
    {
      "buffer": 0,
      "byteLength": 17244,
      "name": "floatBufferViews",
      "target": 34963
    },
    {
      "buffer": 0,
      "byteLength": 16680,
      "byteOffset": 17244,
      "byteStride": 8,
      "name": "floatBufferViews",
      "target": 34962
    },
    {
      "buffer": 0,
      "byteLength": 77088,
      "byteOffset": 33924,
      "byteStride": 12,
      "name": "floatBufferViews",
      "target": 34962
    }
  ],
  "buffers": [
    {
      "byteLength": 111012,
      "uri": "fox.bin"
    }
  ],
  "images": [
    {
      "uri": "textures/Material.009_baseColor.png"
    },
    {
      "uri": "textures/Material.002_baseColor.png"
    },
    {
      "uri": "textures/Material.001_baseColor.png"
    }
  ],
  "materials": [
    {
      "doubleSided": true,
      "name": "Material.009",
      "pbrMetallicRoughness": {
        "baseColorTexture": {
          "index": 0
        },
        "metallicFactor": 0.0,
        "roughnessFactor": 0.6
      }
    },
    {
      "doubleSided": true,
      "emissiveFactor": [
        1.0,
        0.0,
        0.0
      ],
      "name": "Material.007",
      "pbrMetallicRoughness": {
        "baseColorFactor": [
          1.0,
          0.00128527346532792,
          0.0,
          1.0
        ],
        "metallicFactor": 0.0,
        "roughnessFactor": 0.6
      }
    },
    {
      "doubleSided": true,
      "name": "Material.003",
      "pbrMetallicRoughness": {
        "baseColorFactor": [
          1.0,
          0.19413198274092805,
          0.5389374182688565,
          1.0
        ],
        "metallicFactor": 0.0,
        "roughnessFactor": 0.6
      }
    },
    {
      "doubleSided": true,
      "name": "Material",
      "pbrMetallicRoughness": {
        "baseColorFactor": [
          0.014669376425445062,
          0.001735132769681513,
          0.0,
          1.0
        ],
        "metallicFactor": 0.0,
        "roughnessFactor": 0.6
      }
    },
    {
      "doubleSided": true,
      "name": "Material.002",
      "pbrMetallicRoughness": {
        "baseColorTexture": {
          "index": 1
        },
        "metallicFactor": 0.0,
        "roughnessFactor": 0.6
      }
    },
    {
      "doubleSided": true,
      "name": "Material.001",
      "pbrMetallicRoughness": {
        "baseColorTexture": {
          "index": 2
        },
        "metallicFactor": 0.0,
        "roughnessFactor": 0.6
      }
    }
  ],
  "meshes": [
    {
      "name": "Fox_by_vladhad22@gmail.com_0",
      "primitives": [
        {
          "attributes": {
            "NORMAL": 1,
            "POSITION": 0,
            "TEXCOORD_0": 2
          },
          "indices": 3,
          "material": 5,
          "mode": 4
        }
      ]
    },
    {
      "name": "Plane_0",
      "primitives": [
        {
          "attributes": {
            "NORMAL": 5,
            "POSITION": 4,
            "TEXCOORD_0": 6
          },
          "indices": 7,
          "material": 4,
          "mode": 4
        }
      ]
    },
    {
      "name": "Cylinder.001_0",
      "primitives": [
        {
          "attributes": {
            "NORMAL": 9,
            "POSITION": 8
          },
          "indices": 10,
          "material": 3,
          "mode": 4
        }
      ]
    },
    {
      "name": "Icosphere_0",
      "primitives": [
        {
          "attributes": {
            "NORMAL": 12,
            "POSITION": 11
          },
          "indices": 13,
          "material": 2,
          "mode": 4
        }
      ]
    },
    {
      "name": "Icosphere.001_0",
      "primitives": [
        {
          "attributes": {
            "NORMAL": 15,
            "POSITION": 14
          },
          "indices": 16,
          "material": 1,
          "mode": 4
        }
      ]
    },
    {
      "name": "Plane.001_0",
      "primitives": [
        {
          "attributes": {
            "NORMAL": 18,
            "POSITION": 17,
            "TEXCOORD_0": 19
          },
          "indices": 20,
          "material": 0,
          "mode": 4
        }
      ]
    }
  ],
  "nodes": [
    {
      "children": [
        1
      ],
      "matrix": [
        1.0,
        0.0,
        0.0,
        0.0,
        0.0,
        2.220446049250313e-16,
        -1.0,
        0.0,
        0.0,
        1.0,
        2.220446049250313e-16,
        0.0,
        0.0,
        0.0,
        0.0,
        1.0
      ],
      "name": "Sketchfab_model"
    },
    {
      "children": [
        2,
        4,
        6,
        8,
        10,
        12
      ],
      "name": "Root"
    },
    {
      "children": [
        3
      ],
      "matrix": [
        0.9944999999999999,
        -0.1029,
        0.019260000000000003,
        0.0,
        0.10153000000000001,
        0.99289,
        0.062140000000000015,
        0.0,
        -0.025520000000000004,
        -0.059850000000000014,
        0.99788,
        0.0,
        0.5596400000000001,
        -2.4754099999999997,
        1.05103,
        1.0
      ],
      "name": "Fox_by_vladhad22@gmail.com"
    },
    {
      "mesh": 0,
      "name": "Fox_by_vladhad22@gmail.com_0"
    },
    {
      "children": [
        5
      ],
      "matrix": [
        8.40357,
        0.0,
        0.0,
        0.0,
        0.0,
        8.40357,
        0.0,
        0.0,
        0.0,
        0.0,
        8.40357,
        0.0,
        0.0,
        0.0,
        0.0,
        1.0
      ],
      "name": "Plane"
    },
    {
      "mesh": 1,
      "name": "Plane_0"
    },
    {
      "children": [
        7
      ],
      "matrix": [
        0.43474,
        -0.7940200000000001,
        0.0,
        0.0,
        0.7940200000000001,
        0.43474,
        0.0,
        0.0,
        0.0,
        0.0,
        0.90524,
        0.0,
        0.22618000000000002,
        6.993640000000001,
        0.63046,
        1.0
      ],
      "name": "Cylinder.001"
    },
    {
      "mesh": 2,
      "name": "Cylinder.001_0"
    },
    {
      "children": [
        9
      ],
      "matrix": [
        6.28494,
        0.0,
        0.0,
        0.0,
        0.0,
        6.28494,
        0.0,
        0.0,
        0.0,
        0.0,
        3.58344,
        0.0,
        1.0653899999999998,
        8.217709999999999,
        7.47273,
        1.0
      ],
      "name": "Icosphere"
    },
    {
      "mesh": 3,
      "name": "Icosphere_0"
    },
    {
      "children": [
        11
      ],
      "matrix": [
        5.95004,
        0.0,
        0.0,
        0.0,
        0.0,
        5.95004,
        0.0,
        0.0,
        0.0,
        0.0,
        5.95004,
        0.0,
        -69.60763,
        16.05301,
        18.229129999999998,
        1.0
      ],
      "name": "Icosphere.001"
    },
    {
      "mesh": 4,
      "name": "Icosphere.001_0"
    },
    {
      "children": [
        13
      ],
      "matrix": [
        8.01236,
        5.301220000000001,
        0.0,
        0.0,
        -5.301220000000001,
        8.01236,
        0.0,
        0.0,
        0.0,
        0.0,
        9.60733,
        0.0,
        -30.2382,
        20.067629999999998,
        -0.92491,
        1.0
      ],
      "name": "Plane.001"
    },
    {
      "mesh": 5,
      "name": "Plane.001_0"
    }
  ],
  "samplers": [
    {
      "magFilter": 9729,
      "minFilter": 9987,
      "wrapS": 10497,
      "wrapT": 10497
    }
  ],
  "scene": 0,
  "scenes": [
    {
      "name": "Sketchfab_Scene",
      "nodes": [
        0
      ]
    }
  ],
  "textures": [
    {
      "sampler": 0,
      "source": 0
    },
    {
      "sampler": 0,
      "source": 1
    },
    {
      "sampler": 0,
      "source": 2
    }
  ]
}
