<svg width="289" height="267" viewBox="0 0 289 267" fill="none" xmlns="http://www.w3.org/2000/svg">
<g filter="url(#filter0_i_1_217)">
<path fill-rule="evenodd" clip-rule="evenodd" d="M20 0C8.95431 0 0 8.9543 0 20V247C0 258.046 8.95431 267 20 267H183C194.046 267 203 258.046 203 247V229.736C225.105 228.069 245.977 218.544 261.761 202.761C279.202 185.32 289 161.665 289 137C289 112.335 279.202 88.68 261.761 71.2391C245.977 55.4556 225.105 45.9313 203 44.2636V20C203 8.9543 194.046 0 183 0H20ZM203 81.6406V192.359C215.218 190.815 226.656 185.257 235.457 176.457C245.921 165.992 251.8 151.799 251.8 137C251.8 122.201 245.921 108.008 235.457 97.5434C226.656 88.7426 215.218 83.1852 203 81.6406Z" fill="white"/>
<path fill-rule="evenodd" clip-rule="evenodd" d="M20 0C8.95431 0 0 8.9543 0 20V247C0 258.046 8.95431 267 20 267H183C194.046 267 203 258.046 203 247V229.736C225.105 228.069 245.977 218.544 261.761 202.761C279.202 185.32 289 161.665 289 137C289 112.335 279.202 88.68 261.761 71.2391C245.977 55.4556 225.105 45.9313 203 44.2636V20C203 8.9543 194.046 0 183 0H20ZM203 81.6406V192.359C215.218 190.815 226.656 185.257 235.457 176.457C245.921 165.992 251.8 151.799 251.8 137C251.8 122.201 245.921 108.008 235.457 97.5434C226.656 88.7426 215.218 83.1852 203 81.6406Z" fill="url(#paint0_linear_1_217)" fill-opacity="0.75"/>
<path fill-rule="evenodd" clip-rule="evenodd" d="M20 0C8.95431 0 0 8.9543 0 20V247C0 258.046 8.95431 267 20 267H183C194.046 267 203 258.046 203 247V229.736C225.105 228.069 245.977 218.544 261.761 202.761C279.202 185.32 289 161.665 289 137C289 112.335 279.202 88.68 261.761 71.2391C245.977 55.4556 225.105 45.9313 203 44.2636V20C203 8.9543 194.046 0 183 0H20ZM203 81.6406V192.359C215.218 190.815 226.656 185.257 235.457 176.457C245.921 165.992 251.8 151.799 251.8 137C251.8 122.201 245.921 108.008 235.457 97.5434C226.656 88.7426 215.218 83.1852 203 81.6406Z" fill="url(#paint1_linear_1_217)"/>
</g>
<defs>
<filter id="filter0_i_1_217" x="0" y="0" width="290" height="268" filterUnits="userSpaceOnUse" color-interpolation-filters="sRGB">
<feFlood flood-opacity="0" result="BackgroundImageFix"/>
<feBlend mode="normal" in="SourceGraphic" in2="BackgroundImageFix" result="shape"/>
<feColorMatrix in="SourceAlpha" type="matrix" values="0 0 0 0 0 0 0 0 0 0 0 0 0 0 0 0 0 0 127 0" result="hardAlpha"/>
<feOffset dx="1" dy="1"/>
<feGaussianBlur stdDeviation="0.5"/>
<feComposite in2="hardAlpha" operator="arithmetic" k2="-1" k3="1"/>
<feColorMatrix type="matrix" values="0 0 0 0 1 0 0 0 0 1 0 0 0 0 1 0 0 0 0.5 0"/>
<feBlend mode="normal" in2="shape" result="effect1_innerShadow_1_217"/>
</filter>
<linearGradient id="paint0_linear_1_217" x1="-213" y1="-46" x2="284" y2="272" gradientUnits="userSpaceOnUse">
<stop stop-color="#847757"/>
<stop offset="0.601911" stop-color="#7D7152"/>
<stop offset="1" stop-color="#1C1704"/>
</linearGradient>
<linearGradient id="paint1_linear_1_217" x1="-126.704" y1="133" x2="311.778" y2="133" gradientUnits="userSpaceOnUse">
<stop offset="0.28125" stop-color="#847757" stop-opacity="0"/>
<stop offset="0.754202" stop-color="#1C1704"/>
<stop offset="0.838584" stop-color="#847757" stop-opacity="0"/>
</linearGradient>
</defs>
</svg>
